<svg width="386" height="174" viewBox="0 0 386 174" fill="none" xmlns="http://www.w3.org/2000/svg">
<path d="M223.959 118.214C216.981 125.191 207.841 129.593 198.035 130.699C188.229 131.804 178.338 129.547 169.982 124.297C161.626 119.048 155.299 111.116 152.039 101.802C148.779 92.4881 148.778 82.3429 152.036 73.028C155.293 63.713 161.618 55.7801 169.972 50.5284C178.327 45.2767 188.217 43.0172 198.024 44.12C207.83 45.2228 216.972 49.6225 223.952 56.5987C230.931 63.5748 235.336 72.7141 236.443 82.52" stroke="#4FE16F"/>
<path d="M166.146 133.276C155.679 127.233 147.574 117.815 143.158 106.564C138.741 95.3132 138.276 82.8964 141.838 71.3467C145.4 59.797 152.777 49.7988 162.763 42.9892C172.748 36.1796 184.75 32.9621 196.803 33.8636C208.856 34.7651 220.245 39.7321 229.106 47.9514C237.968 56.1707 243.776 67.1551 245.58 79.1061C247.384 91.0572 245.077 103.267 239.036 113.735C232.996 124.204 223.58 132.311 212.33 136.73" stroke="#4FE16F"/>
<path d="M161.121 32.256C173.509 25.1037 187.959 22.3695 202.104 24.5009C216.249 26.6324 229.251 33.5033 238.981 43.9886C248.711 54.4738 254.593 67.9522 255.664 82.2166C256.734 96.481 252.93 110.686 244.874 122.506C236.817 134.327 224.986 143.061 211.318 147.28C197.65 151.499 182.954 150.952 169.637 145.728C156.32 140.505 145.172 130.915 138.016 118.529C130.861 106.143 128.123 91.6941 130.251 77.5487" stroke="#4FE16F"/>
<path d="M265.633 86.9478C265.633 103.47 260.023 119.504 249.722 132.422C239.421 145.34 225.039 154.378 208.931 158.056C192.823 161.734 175.943 159.833 161.056 152.666C146.169 145.499 134.156 133.489 126.985 118.604C119.814 103.718 117.909 86.8394 121.583 70.7303C125.257 54.6212 134.291 40.2368 147.207 29.9323C160.123 19.6278 176.154 14.0139 192.677 14.0098C209.2 14.0056 225.234 19.6115 238.155 29.9095" stroke="#4FE16F"/>
<path fill-rule="evenodd" clip-rule="evenodd" d="M192.783 72.0276C192.726 72.0064 192.664 72.0064 192.607 72.0276L180.857 76.4339C180.76 76.4705 180.695 76.5638 180.695 76.668V86.9493C180.695 91.4672 183.703 95.2026 186.655 97.786C188.137 99.0823 189.617 100.1 190.727 100.793C191.282 101.14 191.744 101.406 192.069 101.586C192.231 101.676 192.359 101.744 192.447 101.79C192.491 101.813 192.524 101.831 192.547 101.842L192.574 101.856L192.581 101.859L192.582 101.86L192.583 101.86C192.583 101.86 192.583 101.861 192.695 101.637L192.583 101.861C192.654 101.896 192.736 101.896 192.807 101.861L192.695 101.637C192.807 101.861 192.807 101.86 192.807 101.86L192.808 101.86L192.81 101.859L192.816 101.856L192.843 101.842C192.866 101.831 192.899 101.813 192.943 101.79C193.031 101.744 193.159 101.676 193.321 101.586C193.646 101.406 194.109 101.14 194.663 100.793C195.773 100.1 197.253 99.0823 198.735 97.786C201.687 95.2026 204.695 91.4672 204.695 86.9493V76.668C204.695 76.5638 204.63 76.4705 204.533 76.4339L192.783 72.0276ZM192.711 101.347L192.695 101.356L192.679 101.347C192.595 101.303 192.47 101.237 192.311 101.149C191.993 100.973 191.538 100.711 190.992 100.369C189.898 99.6857 188.441 98.6837 186.985 97.4097C184.062 94.8524 181.195 91.244 181.195 86.9493V76.8413L192.695 72.5287L204.195 76.8413V86.9493C204.195 91.244 201.328 94.8524 198.405 97.4097C196.949 98.6837 195.492 99.6857 194.398 100.369C193.852 100.711 193.397 100.973 193.079 101.149C192.92 101.237 192.795 101.303 192.711 101.347ZM186.862 88.1116C187.678 88.8428 188.611 89.2083 189.662 89.2083C190.348 89.2083 190.909 89.0321 191.346 88.6796C191.784 88.3205 192.002 87.8505 192.002 87.2696C192.002 86.7408 191.823 86.3263 191.464 86.026C191.111 85.7192 190.547 85.4809 189.77 85.3112C189.045 85.1545 188.553 84.9783 188.291 84.7824C188.037 84.5866 187.91 84.319 187.91 83.9795C187.91 83.6531 188.043 83.3855 188.311 83.1766C188.579 82.9612 188.931 82.8535 189.368 82.8535C190.08 82.8535 190.739 83.1015 191.346 83.5976L191.797 83.0004C191.098 82.439 190.295 82.1583 189.388 82.1583C188.735 82.1583 188.197 82.3345 187.772 82.687C187.348 83.0395 187.136 83.4867 187.136 84.0285C187.136 84.5834 187.315 85.0109 187.675 85.3112C188.034 85.6115 188.621 85.8497 189.437 86.026C190.129 86.1696 190.599 86.3393 190.847 86.5352C191.095 86.731 191.219 86.9954 191.219 87.3283C191.219 87.6808 191.079 87.968 190.798 88.19C190.517 88.4054 190.149 88.5131 189.692 88.5131C189.228 88.5131 188.81 88.4348 188.438 88.2781C188.073 88.1214 187.707 87.8766 187.342 87.5437L186.862 88.1116ZM193.029 88.1116C193.845 88.8428 194.779 89.2083 195.83 89.2083C196.515 89.2083 197.077 89.0321 197.514 88.6796C197.951 88.3205 198.17 87.8505 198.17 87.2696C198.17 86.7408 197.991 86.3263 197.632 86.026C197.279 85.7192 196.714 85.4809 195.938 85.3112C195.213 85.1545 194.72 84.9783 194.459 84.7824C194.204 84.5866 194.077 84.319 194.077 83.9795C194.077 83.6531 194.211 83.3855 194.479 83.1766C194.746 82.9612 195.099 82.8535 195.536 82.8535C196.248 82.8535 196.907 83.1015 197.514 83.5976L197.964 83.0004C197.266 82.439 196.463 82.1583 195.556 82.1583C194.903 82.1583 194.364 82.3345 193.94 82.687C193.516 83.0395 193.304 83.4867 193.304 84.0285C193.304 84.5834 193.483 85.0109 193.842 85.3112C194.201 85.6115 194.789 85.8497 195.605 86.026C196.297 86.1696 196.767 86.3393 197.015 86.5352C197.263 86.731 197.387 86.9954 197.387 87.3283C197.387 87.6808 197.246 87.968 196.966 88.19C196.685 88.4054 196.316 88.5131 195.859 88.5131C195.396 88.5131 194.978 88.4348 194.606 88.2781C194.24 88.1214 193.875 87.8766 193.509 87.5437L193.029 88.1116Z" fill="white"/>
<path d="M35.2518 76.8656H43.1222C69.1561 76.8656 94.1638 66.7128 112.83 48.5651L136.596 25.459" stroke="#4FE16F"/>
<path d="M351.035 94.9859H343.164C317.13 94.9859 292.123 105.139 273.456 123.286L249.69 146.393" stroke="#4FE16F"/>
<path d="M110.166 86.1647C110.166 70.4805 114.625 55.1194 123.022 41.8724C131.419 28.6254 143.409 18.0383 157.593 11.3455" stroke="#4FE16F"/>
<path d="M110.157 86.1641V86.1641C110.157 90.4903 106.65 93.9975 102.324 93.9975H0" stroke="#4FE16F"/>
<path d="M275.628 86.1653C275.628 101.85 271.169 117.211 262.772 130.458C254.375 143.705 242.385 154.292 228.201 160.985" stroke="#4FE16F"/>
<path d="M275.637 86.166V86.166C275.637 81.8398 279.144 78.3326 283.47 78.3326H385.794" stroke="#4FE16F"/>
</svg>
