<svg width="58" height="60" viewBox="0 0 58 60" fill="none" xmlns="http://www.w3.org/2000/svg">
<path d="M55.1 22.8563C55.4809 22.8564 55.858 22.7825 56.2099 22.639C56.5618 22.4954 56.8815 22.285 57.1508 22.0196C57.4201 21.7543 57.6337 21.4393 57.7795 21.0926C57.9252 20.7459 58.0001 20.3743 58 19.9991V11.4274C58.0003 10.8279 57.8089 10.2436 57.453 9.75724C57.0972 9.27092 56.595 8.90736 56.0176 8.71812L29.9176 0.146487C29.3219 -0.0488291 28.6781 -0.0488291 28.0824 0.146487L1.98241 8.71812C1.40503 8.90736 0.902795 9.27092 0.546957 9.75724C0.191119 10.2436 -0.000249782 10.8279 2.44685e-07 11.4274V19.9991C-9.88179e-05 20.3743 0.0748446 20.7459 0.220548 21.0926C0.366252 21.4393 0.57986 21.7543 0.84917 22.0196C1.11848 22.285 1.43821 22.4954 1.7901 22.639C2.14199 22.7825 2.51914 22.8564 2.9 22.8563H5.8V43.3832C4.10854 43.9702 2.64296 45.0587 1.60448 46.4992C0.565991 47.9396 0.00551718 49.6615 2.44685e-07 51.4284V57.1428C-9.88179e-05 57.518 0.0748446 57.8896 0.220548 58.2363C0.366252 58.583 0.57986 58.898 0.84917 59.1634C1.11848 59.4287 1.43821 59.6391 1.7901 59.7827C2.14199 59.9263 2.51914 60.0001 2.9 60H55.1C55.4809 60.0001 55.858 59.9263 56.2099 59.7827C56.5618 59.6391 56.8815 59.4287 57.1508 59.1634C57.4201 58.898 57.6337 58.583 57.7795 58.2363C57.9252 57.8896 58.0001 57.518 58 57.1428V51.4284C57.9945 49.6615 57.434 47.9396 56.3955 46.4992C55.357 45.0587 53.8915 43.9702 52.2 43.3832V22.8563H55.1ZM52.2 54.2856H5.8V51.4284C5.80077 50.6708 6.10655 49.9445 6.65024 49.4089C7.19393 48.8732 7.93111 48.5719 8.7 48.5712H49.3C50.0689 48.5719 50.8061 48.8732 51.3498 49.4089C51.8935 49.9445 52.1992 50.6708 52.2 51.4284V54.2856ZM11.6 42.8567V22.8563H17.4V42.8567H11.6ZM23.2 42.8567V22.8563H34.8V42.8567H23.2ZM40.6 42.8567V22.8563H46.4V42.8567H40.6ZM5.8 17.1419V13.4866L29 5.86645L52.2 13.4866V17.1419H5.8Z" fill="white" fill-opacity="0.15"/>
</svg>
