<svg width="141" height="81" viewBox="0 0 141 81" fill="none" xmlns="http://www.w3.org/2000/svg">
<rect x="0.660747" y="0.372896" width="14.7555" height="81.0741" rx="7.37773" transform="matrix(0.980917 -0.194425 0.340576 0.940217 23.8859 3.21423)" fill="url(#paint0_linear)" stroke="#E7242D"/>
<rect x="0.320171" y="0.567321" width="14.7555" height="81.0741" rx="7.37773" transform="matrix(0.980917 0.194425 -0.340576 0.940217 28.1517 -0.0283331)" fill="url(#paint1_linear)" stroke="#E7242D"/>
<rect x="0.320171" y="0.567321" width="14.7555" height="81.0741" rx="7.37773" transform="matrix(0.980917 0.194425 -0.340576 0.940217 76.1517 -0.0283331)" fill="url(#paint2_linear)" stroke="#E7242D"/>
<rect x="0.660747" y="0.372896" width="14.7555" height="81.0741" rx="7.37773" transform="matrix(0.980917 -0.194425 0.340576 0.940217 72.1827 3.21423)" fill="url(#paint3_linear)" stroke="#E7242D"/>
<rect x="0.320171" y="0.567321" width="14.7555" height="81.0741" rx="7.37773" transform="matrix(0.980917 0.194425 -0.340576 0.940217 125.152 -0.0283331)" fill="url(#paint4_linear)" stroke="#E7242D"/>
<defs>
<linearGradient id="paint0_linear" x1="-63.0219" y1="-19.3786" x2="30.1345" y2="53.704" gradientUnits="userSpaceOnUse">
<stop stop-color="#FF0000" stop-opacity="0.29"/>
<stop offset="1" stop-color="#FF0000" stop-opacity="0"/>
</linearGradient>
<linearGradient id="paint1_linear" x1="-63.0219" y1="-19.3786" x2="30.1345" y2="53.704" gradientUnits="userSpaceOnUse">
<stop stop-color="#FF0000" stop-opacity="0.29"/>
<stop offset="1" stop-color="#FF0000" stop-opacity="0"/>
</linearGradient>
<linearGradient id="paint2_linear" x1="-63.0219" y1="-19.3786" x2="30.1345" y2="53.704" gradientUnits="userSpaceOnUse">
<stop stop-color="#FF0000" stop-opacity="0.29"/>
<stop offset="1" stop-color="#FF0000" stop-opacity="0"/>
</linearGradient>
<linearGradient id="paint3_linear" x1="-63.0219" y1="-19.3786" x2="30.1345" y2="53.704" gradientUnits="userSpaceOnUse">
<stop stop-color="#FF0000" stop-opacity="0.29"/>
<stop offset="1" stop-color="#FF0000" stop-opacity="0"/>
</linearGradient>
<linearGradient id="paint4_linear" x1="-63.0219" y1="-19.3786" x2="30.1345" y2="53.704" gradientUnits="userSpaceOnUse">
<stop stop-color="#FF0000" stop-opacity="0.29"/>
<stop offset="1" stop-color="#FF0000" stop-opacity="0"/>
</linearGradient>
</defs>
</svg>
