<svg width="173" height="114" viewBox="0 0 173 114" fill="none" xmlns="http://www.w3.org/2000/svg">
<g opacity="0.5">
<g opacity="0.5">
<path opacity="0.5" d="M86.4009 10.7899V0.669922" stroke="white" stroke-width="0.5" stroke-miterlimit="10"/>
</g>
</g>
<g opacity="0.5">
<g opacity="0.5">
<path opacity="0.5" d="M109.931 14.5204L113.061 4.90039" stroke="white" stroke-width="0.5" stroke-miterlimit="10"/>
</g>
</g>
<g opacity="0.5">
<g opacity="0.5">
<path opacity="0.5" d="M131.161 25.3404L137.111 17.1504" stroke="white" stroke-width="0.5" stroke-miterlimit="10"/>
</g>
</g>
<g opacity="0.5">
<g opacity="0.5">
<path opacity="0.5" d="M148.011 42.1902L156.201 36.2402" stroke="white" stroke-width="0.5" stroke-miterlimit="10"/>
</g>
</g>
<g opacity="0.5">
<g opacity="0.5">
<path opacity="0.5" d="M158.831 63.42L168.461 60.29" stroke="white" stroke-width="0.5" stroke-miterlimit="10"/>
</g>
<g opacity="0.5">
<path opacity="0.5" d="M4.34082 113.62L13.9608 110.49" stroke="white" stroke-width="0.5" stroke-miterlimit="10"/>
</g>
</g>
<g opacity="0.5">
<g opacity="0.5">
<path opacity="0.5" d="M162.561 86.96H172.681" stroke="white" stroke-width="0.5" stroke-miterlimit="10"/>
</g>
<g opacity="0.5">
<path opacity="0.5" d="M0.11084 86.96H10.2308" stroke="white" stroke-width="0.5" stroke-miterlimit="10"/>
</g>
</g>
<g opacity="0.5">
<g opacity="0.5">
<path opacity="0.5" d="M158.831 110.49L168.461 113.62" stroke="white" stroke-width="0.5" stroke-miterlimit="10"/>
</g>
<g opacity="0.5">
<path opacity="0.5" d="M4.34082 60.29L13.9608 63.42" stroke="white" stroke-width="0.5" stroke-miterlimit="10"/>
</g>
</g>
<g opacity="0.5">
<g opacity="0.5">
<path opacity="0.5" d="M16.5908 36.2402L24.7808 42.1902" stroke="white" stroke-width="0.5" stroke-miterlimit="10"/>
</g>
</g>
<g opacity="0.5">
<g opacity="0.5">
<path opacity="0.5" d="M35.6807 17.1504L41.6307 25.3404" stroke="white" stroke-width="0.5" stroke-miterlimit="10"/>
</g>
</g>
<g opacity="0.5">
<g opacity="0.5">
<path opacity="0.5" d="M59.731 4.90039L62.861 14.5204" stroke="white" stroke-width="0.5" stroke-miterlimit="10"/>
</g>
</g>
<g opacity="0.5">
<g opacity="0.5">
<path opacity="0.5" d="M86.4004 10.7899V0.669922" stroke="white" stroke-width="0.5" stroke-miterlimit="10"/>
</g>
</g>
<g opacity="0.5">
<g opacity="0.5">
<path opacity="0.5" d="M109.93 14.5204L113.06 4.90039" stroke="white" stroke-width="0.5" stroke-miterlimit="10"/>
</g>
</g>
<g opacity="0.5">
<g opacity="0.5">
<path opacity="0.5" d="M131.16 25.3404L137.11 17.1504" stroke="white" stroke-width="0.5" stroke-miterlimit="10"/>
</g>
</g>
<g opacity="0.5">
<g opacity="0.5">
<path opacity="0.5" d="M148.01 42.1902L156.2 36.2402" stroke="white" stroke-width="0.5" stroke-miterlimit="10"/>
</g>
</g>
<g opacity="0.5">
<g opacity="0.5">
<path opacity="0.5" d="M158.831 63.42L168.461 60.29" stroke="white" stroke-width="0.5" stroke-miterlimit="10"/>
</g>
<g opacity="0.5">
<path opacity="0.5" d="M4.34033 113.62L13.9603 110.49" stroke="white" stroke-width="0.5" stroke-miterlimit="10"/>
</g>
</g>
<g opacity="0.5">
<g opacity="0.5">
<path opacity="0.5" d="M162.561 86.96H172.681" stroke="white" stroke-width="0.5" stroke-miterlimit="10"/>
</g>
<g opacity="0.5">
<path opacity="0.5" d="M0.110352 86.96H10.2304" stroke="white" stroke-width="0.5" stroke-miterlimit="10"/>
</g>
</g>
<g opacity="0.5">
<g opacity="0.5">
<path opacity="0.5" d="M158.831 110.49L168.461 113.62" stroke="white" stroke-width="0.5" stroke-miterlimit="10"/>
</g>
<g opacity="0.5">
<path opacity="0.5" d="M4.34033 60.29L13.9603 63.42" stroke="white" stroke-width="0.5" stroke-miterlimit="10"/>
</g>
</g>
<g opacity="0.5">
<g opacity="0.5">
<path opacity="0.5" d="M16.5903 36.2402L24.7803 42.1902" stroke="white" stroke-width="0.5" stroke-miterlimit="10"/>
</g>
</g>
<g opacity="0.5">
<g opacity="0.5">
<path opacity="0.5" d="M35.6802 17.1504L41.6302 25.3404" stroke="white" stroke-width="0.5" stroke-miterlimit="10"/>
</g>
</g>
<g opacity="0.5">
<g opacity="0.5">
<path opacity="0.5" d="M59.7305 4.90039L62.8605 14.5204" stroke="white" stroke-width="0.5" stroke-miterlimit="10"/>
</g>
</g>
<g opacity="0.5">
<g opacity="0.5">
<path opacity="0.5" d="M86.4009 10.7899V0.669922" stroke="white" stroke-width="0.5" stroke-miterlimit="10"/>
</g>
</g>
<g opacity="0.5">
<g opacity="0.5">
<path opacity="0.5" d="M109.931 14.5204L113.061 4.90039" stroke="white" stroke-width="0.5" stroke-miterlimit="10"/>
</g>
</g>
<g opacity="0.5">
<g opacity="0.5">
<path opacity="0.5" d="M131.161 25.3404L137.111 17.1504" stroke="white" stroke-width="0.5" stroke-miterlimit="10"/>
</g>
</g>
<g opacity="0.5">
<g opacity="0.5">
<path opacity="0.5" d="M148.011 42.1902L156.201 36.2402" stroke="white" stroke-width="0.5" stroke-miterlimit="10"/>
</g>
</g>
<g opacity="0.5">
<g opacity="0.5">
<path opacity="0.5" d="M158.831 63.42L168.461 60.29" stroke="white" stroke-width="0.5" stroke-miterlimit="10"/>
</g>
<g opacity="0.5">
<path opacity="0.5" d="M4.34082 113.62L13.9608 110.49" stroke="white" stroke-width="0.5" stroke-miterlimit="10"/>
</g>
</g>
<g opacity="0.5">
<g opacity="0.5">
<path opacity="0.5" d="M162.561 86.96H172.681" stroke="white" stroke-width="0.5" stroke-miterlimit="10"/>
</g>
<g opacity="0.5">
<path opacity="0.5" d="M0.11084 86.96H10.2308" stroke="white" stroke-width="0.5" stroke-miterlimit="10"/>
</g>
</g>
<g opacity="0.5">
<g opacity="0.5">
<path opacity="0.5" d="M158.831 110.49L168.461 113.62" stroke="white" stroke-width="0.5" stroke-miterlimit="10"/>
</g>
<g opacity="0.5">
<path opacity="0.5" d="M4.34082 60.29L13.9608 63.42" stroke="white" stroke-width="0.5" stroke-miterlimit="10"/>
</g>
</g>
<g opacity="0.5">
<g opacity="0.5">
<path opacity="0.5" d="M16.5908 36.2402L24.7808 42.1902" stroke="white" stroke-width="0.5" stroke-miterlimit="10"/>
</g>
</g>
<g opacity="0.5">
<g opacity="0.5">
<path opacity="0.5" d="M35.6807 17.1504L41.6307 25.3404" stroke="white" stroke-width="0.5" stroke-miterlimit="10"/>
</g>
</g>
<g opacity="0.5">
<g opacity="0.5">
<path opacity="0.5" d="M59.731 4.90039L62.861 14.5204" stroke="white" stroke-width="0.5" stroke-miterlimit="10"/>
</g>
</g>
<path d="M19.2395 111V110.805L20.5445 109.625C20.8345 109.362 21.0362 109.143 21.1495 108.97C21.2628 108.793 21.3195 108.613 21.3195 108.43C21.3195 108.21 21.2412 108.03 21.0845 107.89C20.9312 107.75 20.7462 107.68 20.5295 107.68C20.3162 107.68 20.1295 107.733 19.9695 107.84C19.8128 107.947 19.6578 108.11 19.5045 108.33L19.3095 108.2C19.4762 107.947 19.6528 107.758 19.8395 107.635C20.0262 107.512 20.2645 107.45 20.5545 107.45C20.8512 107.45 21.0978 107.543 21.2945 107.73C21.4945 107.913 21.5945 108.143 21.5945 108.42C21.5945 108.65 21.5295 108.86 21.3995 109.05C21.2728 109.24 21.0462 109.483 20.7195 109.78L19.6495 110.75H21.6295V111H19.2395ZM23.7187 111.06C23.2854 111.06 22.9354 110.885 22.6687 110.535C22.4054 110.182 22.2737 109.753 22.2737 109.25C22.2737 108.927 22.3321 108.628 22.4487 108.355C22.5654 108.082 22.7354 107.862 22.9587 107.695C23.1854 107.525 23.4421 107.44 23.7287 107.44C24.1621 107.44 24.5104 107.617 24.7737 107.97C25.0404 108.32 25.1737 108.747 25.1737 109.25C25.1737 109.573 25.1154 109.872 24.9987 110.145C24.8821 110.418 24.7104 110.64 24.4837 110.81C24.2604 110.977 24.0054 111.06 23.7187 111.06ZM22.8737 110.355C23.0937 110.668 23.3787 110.825 23.7287 110.825C24.0787 110.825 24.3621 110.67 24.5787 110.36C24.7954 110.047 24.9037 109.677 24.9037 109.25C24.9037 108.823 24.7937 108.455 24.5737 108.145C24.3537 107.832 24.0687 107.675 23.7187 107.675C23.3687 107.675 23.0854 107.83 22.8687 108.14C22.6521 108.45 22.5437 108.82 22.5437 109.25C22.5437 109.673 22.6537 110.042 22.8737 110.355Z" fill="white"/>
<path d="M17.2245 88V87.145H15.3295L15.2395 86.95L17.2395 84.475H17.4745V86.92H18.0445V87.145H17.4745V88H17.2245ZM15.5545 86.92H17.2245V84.85L15.5545 86.92ZM20.0898 88.06C19.6565 88.06 19.3065 87.885 19.0398 87.535C18.7765 87.1817 18.6448 86.7533 18.6448 86.25C18.6448 85.9267 18.7032 85.6283 18.8198 85.355C18.9365 85.0817 19.1065 84.8617 19.3298 84.695C19.5565 84.525 19.8132 84.44 20.0998 84.44C20.5332 84.44 20.8815 84.6167 21.1448 84.97C21.4115 85.32 21.5448 85.7467 21.5448 86.25C21.5448 86.5733 21.4865 86.8717 21.3698 87.145C21.2532 87.4183 21.0815 87.64 20.8548 87.81C20.6315 87.9767 20.3765 88.06 20.0898 88.06ZM19.2448 87.355C19.4648 87.6683 19.7498 87.825 20.0998 87.825C20.4498 87.825 20.7332 87.67 20.9498 87.36C21.1665 87.0467 21.2748 86.6767 21.2748 86.25C21.2748 85.8233 21.1648 85.455 20.9448 85.145C20.7248 84.8317 20.4398 84.675 20.0898 84.675C19.7398 84.675 19.4565 84.83 19.2398 85.14C19.0232 85.45 18.9148 85.82 18.9148 86.25C18.9148 86.6733 19.0248 87.0417 19.2448 87.355Z" fill="white"/>
<path d="M19.6545 66.06C19.2945 66.06 18.9978 65.9433 18.7645 65.71C18.6112 65.5567 18.4978 65.3767 18.4245 65.17C18.3545 64.9633 18.3195 64.685 18.3195 64.335C18.3195 63.795 18.4495 63.345 18.7095 62.985C18.9728 62.6217 19.3178 62.44 19.7445 62.44C20.0878 62.44 20.4245 62.575 20.7545 62.845L20.5895 63.045C20.3128 62.7983 20.0245 62.675 19.7245 62.675C19.3812 62.675 19.1045 62.835 18.8945 63.155C18.6845 63.475 18.5795 63.8917 18.5795 64.405V64.49C18.8328 64.0567 19.1978 63.84 19.6745 63.84C20.0012 63.84 20.2828 63.9417 20.5195 64.145C20.7595 64.345 20.8795 64.6 20.8795 64.91C20.8795 65.24 20.7612 65.515 20.5245 65.735C20.2912 65.9517 20.0012 66.06 19.6545 66.06ZM19.6745 65.825C19.9512 65.825 20.1762 65.7367 20.3495 65.56C20.5228 65.3833 20.6095 65.1667 20.6095 64.91C20.6095 64.67 20.5195 64.47 20.3395 64.31C20.1628 64.15 19.9362 64.07 19.6595 64.07C19.3828 64.07 19.1512 64.1583 18.9645 64.335C18.7778 64.5117 18.6845 64.715 18.6845 64.945C18.6845 65.195 18.7778 65.405 18.9645 65.575C19.1545 65.7417 19.3912 65.825 19.6745 65.825ZM22.9775 66.06C22.5442 66.06 22.1942 65.885 21.9275 65.535C21.6642 65.1817 21.5325 64.7533 21.5325 64.25C21.5325 63.9267 21.5909 63.6283 21.7075 63.355C21.8242 63.0817 21.9942 62.8617 22.2175 62.695C22.4442 62.525 22.7009 62.44 22.9875 62.44C23.4209 62.44 23.7692 62.6167 24.0325 62.97C24.2992 63.32 24.4325 63.7467 24.4325 64.25C24.4325 64.5733 24.3742 64.8717 24.2575 65.145C24.1409 65.4183 23.9692 65.64 23.7425 65.81C23.5192 65.9767 23.2642 66.06 22.9775 66.06ZM22.1325 65.355C22.3525 65.6683 22.6375 65.825 22.9875 65.825C23.3375 65.825 23.6209 65.67 23.8375 65.36C24.0542 65.0467 24.1625 64.6767 24.1625 64.25C24.1625 63.8233 24.0525 63.455 23.8325 63.145C23.6125 62.8317 23.3275 62.675 22.9775 62.675C22.6275 62.675 22.3442 62.83 22.1275 63.14C21.9109 63.45 21.8025 63.82 21.8025 64.25C21.8025 64.6733 21.9125 65.0417 22.1325 65.355Z" fill="white"/>
<path d="M29.5745 46.05C29.2012 46.05 28.8912 45.9583 28.6445 45.775C28.3978 45.5883 28.2745 45.3483 28.2745 45.055C28.2745 44.8583 28.3462 44.685 28.4895 44.535C28.6328 44.3817 28.8195 44.2667 29.0495 44.19C28.6128 44.0133 28.3945 43.7383 28.3945 43.365C28.3945 43.1017 28.5128 42.8833 28.7495 42.71C28.9862 42.5367 29.2612 42.45 29.5745 42.45C29.8878 42.45 30.1628 42.5367 30.3995 42.71C30.6362 42.8833 30.7545 43.105 30.7545 43.375C30.7545 43.7417 30.5362 44.0133 30.0995 44.19C30.3295 44.2667 30.5162 44.3817 30.6595 44.535C30.8028 44.685 30.8745 44.8617 30.8745 45.065C30.8745 45.3517 30.7495 45.5883 30.4995 45.775C30.2528 45.9583 29.9445 46.05 29.5745 46.05ZM28.8245 45.6C29.0112 45.7433 29.2612 45.815 29.5745 45.815C29.8878 45.815 30.1378 45.7433 30.3245 45.6C30.5112 45.4533 30.6045 45.275 30.6045 45.065C30.6045 44.8483 30.5045 44.67 30.3045 44.53C30.1045 44.3867 29.8612 44.315 29.5745 44.315C29.2845 44.315 29.0395 44.3867 28.8395 44.53C28.6428 44.6733 28.5445 44.855 28.5445 45.075C28.5445 45.2817 28.6378 45.4567 28.8245 45.6ZM28.9295 43.895C29.1062 44.0283 29.3212 44.095 29.5745 44.095C29.8278 44.095 30.0428 44.0283 30.2195 43.895C30.3962 43.7583 30.4845 43.5817 30.4845 43.365C30.4845 43.1683 30.3962 43.0067 30.2195 42.88C30.0462 42.75 29.8312 42.685 29.5745 42.685C29.3178 42.685 29.1012 42.75 28.9245 42.88C28.7512 43.01 28.6645 43.175 28.6645 43.375C28.6645 43.585 28.7528 43.7583 28.9295 43.895ZM32.9189 46.06C32.4856 46.06 32.1356 45.885 31.8689 45.535C31.6056 45.1817 31.4739 44.7533 31.4739 44.25C31.4739 43.9267 31.5323 43.6283 31.6489 43.355C31.7656 43.0817 31.9356 42.8617 32.1589 42.695C32.3856 42.525 32.6423 42.44 32.9289 42.44C33.3623 42.44 33.7106 42.6167 33.9739 42.97C34.2406 43.32 34.3739 43.7467 34.3739 44.25C34.3739 44.5733 34.3156 44.8717 34.1989 45.145C34.0823 45.4183 33.9106 45.64 33.6839 45.81C33.4606 45.9767 33.2056 46.06 32.9189 46.06ZM32.0739 45.355C32.2939 45.6683 32.5789 45.825 32.9289 45.825C33.2789 45.825 33.5623 45.67 33.7789 45.36C33.9956 45.0467 34.1039 44.6767 34.1039 44.25C34.1039 43.8233 33.9939 43.455 33.7739 43.145C33.5539 42.8317 33.2689 42.675 32.9189 42.675C32.5689 42.675 32.2856 42.83 32.0689 43.14C31.8523 43.45 31.7439 43.82 31.7439 44.25C31.7439 44.6733 31.8539 45.0417 32.0739 45.355Z" fill="white"/>
<path d="M39.8945 34V30.745L39.2195 30.975L39.1495 30.77L39.9495 30.475H40.1495V34H39.8945ZM42.4443 34.06C42.011 34.06 41.661 33.885 41.3943 33.535C41.131 33.1817 40.9993 32.7533 40.9993 32.25C40.9993 31.9267 41.0576 31.6283 41.1743 31.355C41.291 31.0817 41.461 30.8617 41.6843 30.695C41.911 30.525 42.1676 30.44 42.4543 30.44C42.8876 30.44 43.236 30.6167 43.4993 30.97C43.766 31.32 43.8993 31.7467 43.8993 32.25C43.8993 32.5733 43.841 32.8717 43.7243 33.145C43.6076 33.4183 43.436 33.64 43.2093 33.81C42.986 33.9767 42.731 34.06 42.4443 34.06ZM41.5993 33.355C41.8193 33.6683 42.1043 33.825 42.4543 33.825C42.8043 33.825 43.0876 33.67 43.3043 33.36C43.521 33.0467 43.6293 32.6767 43.6293 32.25C43.6293 31.8233 43.5193 31.455 43.2993 31.145C43.0793 30.8317 42.7943 30.675 42.4443 30.675C42.0943 30.675 41.811 30.83 41.5943 31.14C41.3776 31.45 41.2693 31.82 41.2693 32.25C41.2693 32.6733 41.3793 33.0417 41.5993 33.355ZM45.9941 34.06C45.5608 34.06 45.2108 33.885 44.9441 33.535C44.6808 33.1817 44.5491 32.7533 44.5491 32.25C44.5491 31.9267 44.6075 31.6283 44.7241 31.355C44.8408 31.0817 45.0108 30.8617 45.2341 30.695C45.4608 30.525 45.7175 30.44 46.0041 30.44C46.4375 30.44 46.7858 30.6167 47.0491 30.97C47.3158 31.32 47.4491 31.7467 47.4491 32.25C47.4491 32.5733 47.3908 32.8717 47.2741 33.145C47.1575 33.4183 46.9858 33.64 46.7591 33.81C46.5358 33.9767 46.2808 34.06 45.9941 34.06ZM45.1491 33.355C45.3691 33.6683 45.6541 33.825 46.0041 33.825C46.3541 33.825 46.6375 33.67 46.8541 33.36C47.0708 33.0467 47.1791 32.6767 47.1791 32.25C47.1791 31.8233 47.0691 31.455 46.8491 31.145C46.6291 30.8317 46.3441 30.675 45.9941 30.675C45.6441 30.675 45.3608 30.83 45.1441 31.14C44.9275 31.45 44.8191 31.82 44.8191 32.25C44.8191 32.6733 44.9291 33.0417 45.1491 33.355Z" fill="white"/>
<path d="M59.8945 22V18.745L59.2195 18.975L59.1495 18.77L59.9495 18.475H60.1495V22H59.8945ZM60.9143 22V21.805L62.2193 20.625C62.5093 20.3617 62.711 20.1433 62.8243 19.97C62.9376 19.7933 62.9943 19.6133 62.9943 19.43C62.9943 19.21 62.916 19.03 62.7593 18.89C62.606 18.75 62.421 18.68 62.2043 18.68C61.991 18.68 61.8043 18.7333 61.6443 18.84C61.4876 18.9467 61.3326 19.11 61.1793 19.33L60.9843 19.2C61.151 18.9467 61.3276 18.7583 61.5143 18.635C61.701 18.5117 61.9393 18.45 62.2293 18.45C62.526 18.45 62.7726 18.5433 62.9693 18.73C63.1693 18.9133 63.2693 19.1433 63.2693 19.42C63.2693 19.65 63.2043 19.86 63.0743 20.05C62.9476 20.24 62.721 20.4833 62.3943 20.78L61.3243 21.75H63.3043V22H60.9143ZM65.3935 22.06C64.9602 22.06 64.6102 21.885 64.3435 21.535C64.0802 21.1817 63.9485 20.7533 63.9485 20.25C63.9485 19.9267 64.0069 19.6283 64.1235 19.355C64.2402 19.0817 64.4102 18.8617 64.6335 18.695C64.8602 18.525 65.1169 18.44 65.4035 18.44C65.8369 18.44 66.1852 18.6167 66.4485 18.97C66.7152 19.32 66.8485 19.7467 66.8485 20.25C66.8485 20.5733 66.7902 20.8717 66.6735 21.145C66.5569 21.4183 66.3852 21.64 66.1585 21.81C65.9352 21.9767 65.6802 22.06 65.3935 22.06ZM64.5485 21.355C64.7685 21.6683 65.0535 21.825 65.4035 21.825C65.7535 21.825 66.0369 21.67 66.2535 21.36C66.4702 21.0467 66.5785 20.6767 66.5785 20.25C66.5785 19.8233 66.4685 19.455 66.2485 19.145C66.0285 18.8317 65.7435 18.675 65.3935 18.675C65.0435 18.675 64.7602 18.83 64.5435 19.14C64.3269 19.45 64.2185 19.82 64.2185 20.25C64.2185 20.6733 64.3285 21.0417 64.5485 21.355Z" fill="white"/>
<path d="M82.8945 19V15.745L82.2195 15.975L82.1495 15.77L82.9495 15.475H83.1495V19H82.8945ZM85.8993 19V18.145H84.0043L83.9143 17.95L85.9143 15.475H86.1493V17.92H86.7193V18.145H86.1493V19H85.8993ZM84.2293 17.92H85.8993V15.85L84.2293 17.92ZM88.7646 19.06C88.3313 19.06 87.9813 18.885 87.7146 18.535C87.4513 18.1817 87.3196 17.7533 87.3196 17.25C87.3196 16.9267 87.378 16.6283 87.4946 16.355C87.6113 16.0817 87.7813 15.8617 88.0046 15.695C88.2313 15.525 88.488 15.44 88.7746 15.44C89.208 15.44 89.5563 15.6167 89.8196 15.97C90.0863 16.32 90.2196 16.7467 90.2196 17.25C90.2196 17.5733 90.1613 17.8717 90.0446 18.145C89.928 18.4183 89.7563 18.64 89.5296 18.81C89.3063 18.9767 89.0513 19.06 88.7646 19.06ZM87.9196 18.355C88.1396 18.6683 88.4246 18.825 88.7746 18.825C89.1246 18.825 89.408 18.67 89.6246 18.36C89.8413 18.0467 89.9496 17.6767 89.9496 17.25C89.9496 16.8233 89.8396 16.455 89.6196 16.145C89.3996 15.8317 89.1146 15.675 88.7646 15.675C88.4146 15.675 88.1313 15.83 87.9146 16.14C87.698 16.45 87.5896 16.82 87.5896 17.25C87.5896 17.6733 87.6996 18.0417 87.9196 18.355Z" fill="white"/>
<path d="M106.895 21V17.745L106.22 17.975L106.15 17.77L106.95 17.475H107.15V21H106.895ZM109.329 21.06C108.969 21.06 108.673 20.9433 108.439 20.71C108.286 20.5567 108.173 20.3767 108.099 20.17C108.029 19.9633 107.994 19.685 107.994 19.335C107.994 18.795 108.124 18.345 108.384 17.985C108.648 17.6217 108.993 17.44 109.419 17.44C109.763 17.44 110.099 17.575 110.429 17.845L110.264 18.045C109.988 17.7983 109.699 17.675 109.399 17.675C109.056 17.675 108.779 17.835 108.569 18.155C108.359 18.475 108.254 18.8917 108.254 19.405V19.49C108.508 19.0567 108.873 18.84 109.349 18.84C109.676 18.84 109.958 18.9417 110.194 19.145C110.434 19.345 110.554 19.6 110.554 19.91C110.554 20.24 110.436 20.515 110.199 20.735C109.966 20.9517 109.676 21.06 109.329 21.06ZM109.349 20.825C109.626 20.825 109.851 20.7367 110.024 20.56C110.198 20.3833 110.284 20.1667 110.284 19.91C110.284 19.67 110.194 19.47 110.014 19.31C109.838 19.15 109.611 19.07 109.334 19.07C109.058 19.07 108.826 19.1583 108.639 19.335C108.453 19.5117 108.359 19.715 108.359 19.945C108.359 20.195 108.453 20.405 108.639 20.575C108.829 20.7417 109.066 20.825 109.349 20.825ZM112.652 21.06C112.219 21.06 111.869 20.885 111.602 20.535C111.339 20.1817 111.207 19.7533 111.207 19.25C111.207 18.9267 111.266 18.6283 111.382 18.355C111.499 18.0817 111.669 17.8617 111.892 17.695C112.119 17.525 112.376 17.44 112.662 17.44C113.096 17.44 113.444 17.6167 113.707 17.97C113.974 18.32 114.107 18.7467 114.107 19.25C114.107 19.5733 114.049 19.8717 113.932 20.145C113.816 20.4183 113.644 20.64 113.417 20.81C113.194 20.9767 112.939 21.06 112.652 21.06ZM111.807 20.355C112.027 20.6683 112.312 20.825 112.662 20.825C113.012 20.825 113.296 20.67 113.512 20.36C113.729 20.0467 113.837 19.6767 113.837 19.25C113.837 18.8233 113.727 18.455 113.507 18.145C113.287 17.8317 113.002 17.675 112.652 17.675C112.302 17.675 112.019 17.83 111.802 18.14C111.586 18.45 111.477 18.82 111.477 19.25C111.477 19.6733 111.587 20.0417 111.807 20.355Z" fill="white"/>
<path d="M122.895 33V29.745L122.22 29.975L122.15 29.77L122.95 29.475H123.15V33H122.895ZM125.249 33.05C124.876 33.05 124.566 32.9583 124.319 32.775C124.073 32.5883 123.949 32.3483 123.949 32.055C123.949 31.8583 124.021 31.685 124.164 31.535C124.308 31.3817 124.494 31.2667 124.724 31.19C124.288 31.0133 124.069 30.7383 124.069 30.365C124.069 30.1017 124.188 29.8833 124.424 29.71C124.661 29.5367 124.936 29.45 125.249 29.45C125.563 29.45 125.838 29.5367 126.074 29.71C126.311 29.8833 126.429 30.105 126.429 30.375C126.429 30.7417 126.211 31.0133 125.774 31.19C126.004 31.2667 126.191 31.3817 126.334 31.535C126.478 31.685 126.549 31.8617 126.549 32.065C126.549 32.3517 126.424 32.5883 126.174 32.775C125.928 32.9583 125.619 33.05 125.249 33.05ZM124.499 32.6C124.686 32.7433 124.936 32.815 125.249 32.815C125.563 32.815 125.813 32.7433 125.999 32.6C126.186 32.4533 126.279 32.275 126.279 32.065C126.279 31.8483 126.179 31.67 125.979 31.53C125.779 31.3867 125.536 31.315 125.249 31.315C124.959 31.315 124.714 31.3867 124.514 31.53C124.318 31.6733 124.219 31.855 124.219 32.075C124.219 32.2817 124.313 32.4567 124.499 32.6ZM124.604 30.895C124.781 31.0283 124.996 31.095 125.249 31.095C125.503 31.095 125.718 31.0283 125.894 30.895C126.071 30.7583 126.159 30.5817 126.159 30.365C126.159 30.1683 126.071 30.0067 125.894 29.88C125.721 29.75 125.506 29.685 125.249 29.685C124.993 29.685 124.776 29.75 124.599 29.88C124.426 30.01 124.339 30.175 124.339 30.375C124.339 30.585 124.428 30.7583 124.604 30.895ZM128.594 33.06C128.16 33.06 127.81 32.885 127.544 32.535C127.28 32.1817 127.149 31.7533 127.149 31.25C127.149 30.9267 127.207 30.6283 127.324 30.355C127.44 30.0817 127.61 29.8617 127.834 29.695C128.06 29.525 128.317 29.44 128.604 29.44C129.037 29.44 129.385 29.6167 129.649 29.97C129.915 30.32 130.049 30.7467 130.049 31.25C130.049 31.5733 129.99 31.8717 129.874 32.145C129.757 32.4183 129.585 32.64 129.359 32.81C129.135 32.9767 128.88 33.06 128.594 33.06ZM127.749 32.355C127.969 32.6683 128.254 32.825 128.604 32.825C128.954 32.825 129.237 32.67 129.454 32.36C129.67 32.0467 129.779 31.6767 129.779 31.25C129.779 30.8233 129.669 30.455 129.449 30.145C129.229 29.8317 128.944 29.675 128.594 29.675C128.244 29.675 127.96 29.83 127.744 30.14C127.527 30.45 127.419 30.82 127.419 31.25C127.419 31.6733 127.529 32.0417 127.749 32.355Z" fill="white"/>
<path d="M135.24 46V45.805L136.545 44.625C136.835 44.3617 137.036 44.1433 137.15 43.97C137.263 43.7933 137.32 43.6133 137.32 43.43C137.32 43.21 137.241 43.03 137.085 42.89C136.931 42.75 136.746 42.68 136.53 42.68C136.316 42.68 136.13 42.7333 135.97 42.84C135.813 42.9467 135.658 43.11 135.505 43.33L135.31 43.2C135.476 42.9467 135.653 42.7583 135.84 42.635C136.026 42.5117 136.265 42.45 136.555 42.45C136.851 42.45 137.098 42.5433 137.295 42.73C137.495 42.9133 137.595 43.1433 137.595 43.42C137.595 43.65 137.53 43.86 137.4 44.05C137.273 44.24 137.046 44.4833 136.72 44.78L135.65 45.75H137.63V46H135.24ZM139.719 46.06C139.285 46.06 138.935 45.885 138.669 45.535C138.405 45.1817 138.274 44.7533 138.274 44.25C138.274 43.9267 138.332 43.6283 138.449 43.355C138.565 43.0817 138.735 42.8617 138.959 42.695C139.185 42.525 139.442 42.44 139.729 42.44C140.162 42.44 140.51 42.6167 140.774 42.97C141.04 43.32 141.174 43.7467 141.174 44.25C141.174 44.5733 141.115 44.8717 140.999 45.145C140.882 45.4183 140.71 45.64 140.484 45.81C140.26 45.9767 140.005 46.06 139.719 46.06ZM138.874 45.355C139.094 45.6683 139.379 45.825 139.729 45.825C140.079 45.825 140.362 45.67 140.579 45.36C140.795 45.0467 140.904 44.6767 140.904 44.25C140.904 43.8233 140.794 43.455 140.574 43.145C140.354 42.8317 140.069 42.675 139.719 42.675C139.369 42.675 139.085 42.83 138.869 43.14C138.652 43.45 138.544 43.82 138.544 44.25C138.544 44.6733 138.654 45.0417 138.874 45.355ZM143.269 46.06C142.835 46.06 142.485 45.885 142.219 45.535C141.955 45.1817 141.824 44.7533 141.824 44.25C141.824 43.9267 141.882 43.6283 141.999 43.355C142.115 43.0817 142.285 42.8617 142.509 42.695C142.735 42.525 142.992 42.44 143.279 42.44C143.712 42.44 144.06 42.6167 144.324 42.97C144.59 43.32 144.724 43.7467 144.724 44.25C144.724 44.5733 144.665 44.8717 144.549 45.145C144.432 45.4183 144.26 45.64 144.034 45.81C143.81 45.9767 143.555 46.06 143.269 46.06ZM142.424 45.355C142.644 45.6683 142.929 45.825 143.279 45.825C143.629 45.825 143.912 45.67 144.129 45.36C144.345 45.0467 144.454 44.6767 144.454 44.25C144.454 43.8233 144.344 43.455 144.124 43.145C143.904 42.8317 143.619 42.675 143.269 42.675C142.919 42.675 142.635 42.83 142.419 43.14C142.202 43.45 142.094 43.82 142.094 44.25C142.094 44.6733 142.204 45.0417 142.424 45.355Z" fill="white"/>
<path d="M146.24 65V64.805L147.545 63.625C147.835 63.3617 148.036 63.1433 148.15 62.97C148.263 62.7933 148.32 62.6133 148.32 62.43C148.32 62.21 148.241 62.03 148.085 61.89C147.931 61.75 147.746 61.68 147.53 61.68C147.316 61.68 147.13 61.7333 146.97 61.84C146.813 61.9467 146.658 62.11 146.505 62.33L146.31 62.2C146.476 61.9467 146.653 61.7583 146.84 61.635C147.026 61.5117 147.265 61.45 147.555 61.45C147.851 61.45 148.098 61.5433 148.295 61.73C148.495 61.9133 148.595 62.1433 148.595 62.42C148.595 62.65 148.53 62.86 148.4 63.05C148.273 63.24 148.046 63.4833 147.72 63.78L146.65 64.75H148.63V65H146.24ZM149.189 65V64.805L150.494 63.625C150.784 63.3617 150.985 63.1433 151.099 62.97C151.212 62.7933 151.269 62.6133 151.269 62.43C151.269 62.21 151.19 62.03 151.034 61.89C150.88 61.75 150.695 61.68 150.479 61.68C150.265 61.68 150.079 61.7333 149.919 61.84C149.762 61.9467 149.607 62.11 149.454 62.33L149.259 62.2C149.425 61.9467 149.602 61.7583 149.789 61.635C149.975 61.5117 150.214 61.45 150.504 61.45C150.8 61.45 151.047 61.5433 151.244 61.73C151.444 61.9133 151.544 62.1433 151.544 62.42C151.544 62.65 151.479 62.86 151.349 63.05C151.222 63.24 150.995 63.4833 150.669 63.78L149.599 64.75H151.579V65H149.189ZM153.668 65.06C153.235 65.06 152.885 64.885 152.618 64.535C152.355 64.1817 152.223 63.7533 152.223 63.25C152.223 62.9267 152.281 62.6283 152.398 62.355C152.515 62.0817 152.685 61.8617 152.908 61.695C153.135 61.525 153.391 61.44 153.678 61.44C154.111 61.44 154.46 61.6167 154.723 61.97C154.99 62.32 155.123 62.7467 155.123 63.25C155.123 63.5733 155.065 63.8717 154.948 64.145C154.831 64.4183 154.66 64.64 154.433 64.81C154.21 64.9767 153.955 65.06 153.668 65.06ZM152.823 64.355C153.043 64.6683 153.328 64.825 153.678 64.825C154.028 64.825 154.311 64.67 154.528 64.36C154.745 64.0467 154.853 63.6767 154.853 63.25C154.853 62.8233 154.743 62.455 154.523 62.145C154.303 61.8317 154.018 61.675 153.668 61.675C153.318 61.675 153.035 61.83 152.818 62.14C152.601 62.45 152.493 62.82 152.493 63.25C152.493 63.6733 152.603 64.0417 152.823 64.355Z" fill="white"/>
<path d="M148.24 88V87.805L149.545 86.625C149.835 86.3617 150.036 86.1433 150.15 85.97C150.263 85.7933 150.32 85.6133 150.32 85.43C150.32 85.21 150.241 85.03 150.085 84.89C149.931 84.75 149.746 84.68 149.53 84.68C149.316 84.68 149.13 84.7333 148.97 84.84C148.813 84.9467 148.658 85.11 148.505 85.33L148.31 85.2C148.476 84.9467 148.653 84.7583 148.84 84.635C149.026 84.5117 149.265 84.45 149.555 84.45C149.851 84.45 150.098 84.5433 150.295 84.73C150.495 84.9133 150.595 85.1433 150.595 85.42C150.595 85.65 150.53 85.86 150.4 86.05C150.273 86.24 150.046 86.4833 149.72 86.78L148.65 87.75H150.63V88H148.24ZM153.022 88V87.145H151.127L151.037 86.95L153.037 84.475H153.272V86.92H153.842V87.145H153.272V88H153.022ZM151.352 86.92H153.022V84.85L151.352 86.92ZM155.888 88.06C155.454 88.06 155.104 87.885 154.838 87.535C154.574 87.1817 154.443 86.7533 154.443 86.25C154.443 85.9267 154.501 85.6283 154.618 85.355C154.734 85.0817 154.904 84.8617 155.128 84.695C155.354 84.525 155.611 84.44 155.898 84.44C156.331 84.44 156.679 84.6167 156.943 84.97C157.209 85.32 157.343 85.7467 157.343 86.25C157.343 86.5733 157.284 86.8717 157.168 87.145C157.051 87.4183 156.879 87.64 156.653 87.81C156.429 87.9767 156.174 88.06 155.888 88.06ZM155.043 87.355C155.263 87.6683 155.548 87.825 155.898 87.825C156.248 87.825 156.531 87.67 156.748 87.36C156.964 87.0467 157.073 86.6767 157.073 86.25C157.073 85.8233 156.963 85.455 156.743 85.145C156.523 84.8317 156.238 84.675 155.888 84.675C155.538 84.675 155.254 84.83 155.038 85.14C154.821 85.45 154.713 85.82 154.713 86.25C154.713 86.6733 154.823 87.0417 155.043 87.355Z" fill="white"/>
<path d="M144.24 110V109.805L145.545 108.625C145.835 108.362 146.036 108.143 146.15 107.97C146.263 107.793 146.32 107.613 146.32 107.43C146.32 107.21 146.241 107.03 146.085 106.89C145.931 106.75 145.746 106.68 145.53 106.68C145.316 106.68 145.13 106.733 144.97 106.84C144.813 106.947 144.658 107.11 144.505 107.33L144.31 107.2C144.476 106.947 144.653 106.758 144.84 106.635C145.026 106.512 145.265 106.45 145.555 106.45C145.851 106.45 146.098 106.543 146.295 106.73C146.495 106.913 146.595 107.143 146.595 107.42C146.595 107.65 146.53 107.86 146.4 108.05C146.273 108.24 146.046 108.483 145.72 108.78L144.65 109.75H146.63V110H144.24ZM148.604 110.06C148.244 110.06 147.947 109.943 147.714 109.71C147.56 109.557 147.447 109.377 147.374 109.17C147.304 108.963 147.269 108.685 147.269 108.335C147.269 107.795 147.399 107.345 147.659 106.985C147.922 106.622 148.267 106.44 148.694 106.44C149.037 106.44 149.374 106.575 149.704 106.845L149.539 107.045C149.262 106.798 148.974 106.675 148.674 106.675C148.33 106.675 148.054 106.835 147.844 107.155C147.634 107.475 147.529 107.892 147.529 108.405V108.49C147.782 108.057 148.147 107.84 148.624 107.84C148.95 107.84 149.232 107.942 149.469 108.145C149.709 108.345 149.829 108.6 149.829 108.91C149.829 109.24 149.71 109.515 149.474 109.735C149.24 109.952 148.95 110.06 148.604 110.06ZM148.624 109.825C148.9 109.825 149.125 109.737 149.299 109.56C149.472 109.383 149.559 109.167 149.559 108.91C149.559 108.67 149.469 108.47 149.289 108.31C149.112 108.15 148.885 108.07 148.609 108.07C148.332 108.07 148.1 108.158 147.914 108.335C147.727 108.512 147.634 108.715 147.634 108.945C147.634 109.195 147.727 109.405 147.914 109.575C148.104 109.742 148.34 109.825 148.624 109.825ZM151.927 110.06C151.493 110.06 151.143 109.885 150.877 109.535C150.613 109.182 150.482 108.753 150.482 108.25C150.482 107.927 150.54 107.628 150.657 107.355C150.773 107.082 150.943 106.862 151.167 106.695C151.393 106.525 151.65 106.44 151.937 106.44C152.37 106.44 152.718 106.617 152.982 106.97C153.248 107.32 153.382 107.747 153.382 108.25C153.382 108.573 153.323 108.872 153.207 109.145C153.09 109.418 152.918 109.64 152.692 109.81C152.468 109.977 152.213 110.06 151.927 110.06ZM151.082 109.355C151.302 109.668 151.587 109.825 151.937 109.825C152.287 109.825 152.57 109.67 152.787 109.36C153.003 109.047 153.112 108.677 153.112 108.25C153.112 107.823 153.002 107.455 152.782 107.145C152.562 106.832 152.277 106.675 151.927 106.675C151.577 106.675 151.293 106.83 151.077 107.14C150.86 107.45 150.752 107.82 150.752 108.25C150.752 108.673 150.862 109.042 151.082 109.355Z" fill="white"/>
</svg>
